<?xml version="1.0"?>
<svg xmlns="http://www.w3.org/2000/svg" id="Capa_1" enable-background="new 0 0 280.823 280.823" height="512px" viewBox="0 0 280.823 280.823" width="512px"><g><path d="m120.353 120.353h-20.059v40.118h-40.118v20.059h40.118v40.118h20.059v-40.118h40.118v-20.059h-40.118z" data-original="#000000" class="active-path" data-old_color="#000000" fill="#9D9898"/><path d="m250.735 0h-160.47c-16.592 0-30.089 13.497-30.089 30.088v30.088h-30.088c-16.591 0-30.088 13.497-30.088 30.089v160.471c0 16.592 13.497 30.088 30.088 30.088h160.471c16.592 0 30.088-13.497 30.088-30.088v-30.088h30.088c16.592 0 30.088-13.497 30.088-30.088v-160.472c0-16.591-13.496-30.088-30.088-30.088zm-50.147 250.735c0 5.534-4.496 10.029-10.029 10.029h-160.471c-5.534 0-10.029-4.496-10.029-10.029v-160.47c0-5.534 4.496-10.029 10.029-10.029h160.471c5.534 0 10.029 4.496 10.029 10.029zm60.177-60.176c0 5.534-4.496 10.029-10.029 10.029h-30.088v-110.323c0-16.592-13.497-30.088-30.088-30.088h-110.325v-30.089c0-5.534 4.496-10.029 10.029-10.029h160.471c5.534 0 10.029 4.496 10.029 10.029v160.471z" data-original="#000000" class="active-path" data-old_color="#000000" fill="currentColor"/></g> </svg>
